<?xml version="1.0" encoding="utf-8"?>
<!-- Generator: Adobe Illustrator 16.0.0, SVG Export Plug-In . SVG Version: 6.00 Build 0)  -->
<!DOCTYPE svg PUBLIC "-//W3C//DTD SVG 1.1//EN" "http://www.w3.org/Graphics/SVG/1.1/DTD/svg11.dtd">
<svg version="1.1" xmlns="http://www.w3.org/2000/svg" xmlns:xlink="http://www.w3.org/1999/xlink" x="0px" y="0px" width="55.84px"
	 height="30px" viewBox="1587.66 -4.21 55.84 30" enable-background="new 1587.66 -4.21 55.84 30" xml:space="preserve">
<g id="Layer_1">
	<path fill="#FFFFFF" d="M1638.37,7.14h-2.24c-0.37-3.56-2.1-5.18-4.17-5.18c-1.62,0-2.87,1.12-2.87,2.37c0,0.57,0.34,1.3,0.78,1.76
		l1.23-0.14c-0.04-0.32-0.04-0.53-0.04-0.73c0-0.84,0.68-1.53,1.64-1.53c1.28,0,2.44,1.4,2.49,3.45h-33.99
		c-1.25-2.09-2.14-3.63-3.15-4.53c-0.84-0.75-1.51-0.82-1.92-0.82c-0.55,0-1.23,0.05-1.23,0.48c0,0.27,0.11,0.48,0.98,2.03
		c0.34-0.11,0.87-0.23,1.32-0.23s0.84,0.21,1.16,0.52c0.61,0.58,1.12,1.24,1.97,2.55h-8.66l1.14,1.88h7.22v2.18h-5.51
		c-0.32,0-0.59,0.34-0.59,0.61c0,0.91,1.73,3.08,2.3,3.08c0.46,0,0.71-0.18,0.71-0.52v-0.82c0-0.3,0.18-0.43,0.41-0.43h2.69v5.21
		l2.1,1.43V9.02h2.93v4.16c0,1.66,2.49,3.15,3.6,3.15c0.57,0,1.48-0.36,2-0.91v2.91l2.11,1.43V9.02h2.73v9.31l2.11,1.43V9.02h12.27
		v2.63c-0.46-0.46-1.41-0.87-1.96-0.87c-0.64,0-1.5,0.5-2.17,1.37c-0.98-1.3-1.83-1.84-2.74-1.84c-1.46,0-2.83,1.41-2.83,3.12
		c0,1.71,1.23,3.54,4.31,6.36l1.1-0.9c-1.94-1.5-3.59-2.94-3.59-4.51c0-1.18,0.75-2.16,1.82-2.16c0.59,0,1.12,0.3,1.39,0.73
		c-0.14,0.25-0.39,0.84-0.46,1.16l1.71,1.14c0.71-1.96,1.8-2.73,2.94-2.73c0.14,0,0.29,0.02,0.45,0.07v5.74l2.1,1.43V9.02h2.65v9.31
		l2.11,1.46V9.02h2.76L1638.37,7.14z M1610.67,12.89c-1.03,1.19-2.25,1.85-2.84,1.85c-0.41,0-0.66-0.23-0.66-0.73V9.02h3.51V12.89z"
		/>
</g>
<g id="nyt_x5F_exporter_x5F_info" display="none">
</g>
</svg>
