<?xml version="1.0" encoding="utf-8"?>
<!-- Generator: Adobe Illustrator 16.0.0, SVG Export Plug-In . SVG Version: 6.00 Build 0)  -->
<!DOCTYPE svg PUBLIC "-//W3C//DTD SVG 1.1//EN" "http://www.w3.org/Graphics/SVG/1.1/DTD/svg11.dtd">
<svg version="1.1" xmlns="http://www.w3.org/2000/svg" xmlns:xlink="http://www.w3.org/1999/xlink" x="0px" y="0px" width="52px"
	 height="30px" viewBox="113.97 -4 52 30" enable-background="new 113.97 -4 52 30" xml:space="preserve">
<g id="Layer_1">
	<g>
		<path fill="#FFFFFF" d="M124.83,21.23c0,0,0-0.06-0.12-0.17l-1.16-1.16c-0.14-0.14-0.31-0.08-0.35-0.03l-1.18,1.14
			c-0.03,0.06-0.04,0.13-0.04,0.21c0,0.08,0.02,0.15,0.05,0.22l1.17,1.12c0.08,0.08,0.15,0.09,0.19,0.09c0.04,0,0.1-0.01,0.18-0.09
			l1.14-1.14C124.77,21.38,124.83,21.3,124.83,21.23z"/>
		<path fill="#FFFFFF" d="M123.39,22.66c-0.04,0-0.11-0.01-0.19-0.09l-1.17-1.12c-0.03-0.06-0.05-0.14-0.05-0.22
			c0-0.08,0.02-0.15,0.04-0.21l1.18-1.14c0.04-0.05,0.21-0.11,0.35,0.03l1.16,1.16c0.11,0.11,0.12,0.17,0.12,0.17
			c0,0.07-0.06,0.15-0.12,0.2l-1.14,1.14C123.5,22.66,123.43,22.66,123.39,22.66z"/>
		<path fill="#FFFFFF" d="M126.86,19.89c-0.07-0.07-0.13-0.07-0.17-0.07c-0.07,0-0.12,0.02-0.17,0.08l-1.14,1.15
			c0,0-0.02,0.05-0.02,0.18c0,0.18,0.03,0.22,0.03,0.22l1.14,1.14c0.08,0.08,0.14,0.09,0.17,0.09c0.05,0,0.09-0.01,0.14-0.07
			l1.19-1.17c0.02-0.02,0.06-0.06,0.06-0.2c0-0.1-0.04-0.15-0.06-0.18L126.86,19.89z"/>
		<path fill="#FFFFFF" d="M128.03,21.42l-1.19,1.17c-0.05,0.06-0.09,0.07-0.14,0.07c-0.04,0-0.09-0.01-0.17-0.09l-1.14-1.14
			c0,0-0.03-0.04-0.03-0.22c0-0.12,0.02-0.18,0.02-0.18l1.14-1.15c0.05-0.05,0.11-0.08,0.17-0.08c0.04,0,0.1,0.01,0.17,0.07
			l1.17,1.15c0.03,0.03,0.06,0.07,0.06,0.18C128.09,21.36,128.04,21.4,128.03,21.42z"/>
		<path fill="#FFFFFF" d="M138.8,4.27c-0.05-0.09-0.08-0.15-0.11-0.18l-2.49,2.15c0.96,1.21,1.44,2.45,1.44,3.69
			c0,0.09,0,0.22-0.02,0.39l-0.01,0.24h-11.72c0.01,0.09,0.05,0.23,0.09,0.44l0.09,0.39c0.05,0.22,0.08,0.36,0.09,0.42l0.17,0.69
			c0.1,0.44,0.19,0.57,0.23,0.61c0.14,0.15,0.32,0.21,0.57,0.21h2.13l-0.15,0.36c-0.27,0.62-0.68,1.13-1.24,1.49
			c-0.89,0.59-1.91,0.89-3.03,0.89c-1.69,0-3.06-0.73-4.06-2.17c-0.74-1.04-1.24-2.31-1.49-3.76c-0.02-0.1-0.03-0.17-0.05-0.22
			c-0.05,0.09-0.17,0.32-0.46,0.91l-0.2,0.44c-0.27,0.55-0.47,0.99-0.62,1.33c0.35,1.86,1.13,3.35,2.32,4.44
			c1.28,1.18,3.01,1.77,5.12,1.77c2.2,0,3.95-0.64,5.21-1.9c0.91-0.91,1.47-2.04,1.68-3.36l0.03-0.22h8.14
			c0.08-0.7,0.12-1.47,0.12-2.27c0-1.24-0.18-2.5-0.55-3.73C139.7,6.15,139.28,5.12,138.8,4.27z"/>
		<path fill="#FFFFFF" d="M140.47,13.33h-8.14l-0.03,0.22c-0.21,1.32-0.77,2.45-1.68,3.36c-1.26,1.26-3.01,1.9-5.21,1.9
			c-2.11,0-3.83-0.6-5.12-1.77c-1.19-1.09-1.97-2.58-2.32-4.44c0.15-0.34,0.36-0.78,0.62-1.33l0.2-0.44
			c0.29-0.59,0.41-0.82,0.46-0.91c0.02,0.05,0.03,0.12,0.05,0.22c0.25,1.45,0.75,2.72,1.49,3.76c1.01,1.44,2.37,2.17,4.06,2.17
			c1.12,0,2.14-0.3,3.03-0.89c0.56-0.36,0.97-0.87,1.24-1.49l0.15-0.36h-2.13c-0.25,0-0.43-0.07-0.57-0.21
			c-0.04-0.04-0.13-0.17-0.23-0.61l-0.17-0.69c-0.01-0.06-0.04-0.2-0.09-0.42L125.98,11c-0.05-0.21-0.08-0.35-0.09-0.44h11.72
			l0.01-0.24c0.01-0.17,0.02-0.3,0.02-0.39c0-1.24-0.48-2.48-1.44-3.69l2.49-2.15c0.03,0.03,0.06,0.09,0.11,0.18
			c0.48,0.86,0.9,1.89,1.24,3.06c0.36,1.24,0.55,2.49,0.55,3.73C140.59,11.86,140.55,12.62,140.47,13.33z"/>
		<path fill="#FFFFFF" d="M137.08,16.2c-0.07-0.07-0.14-0.1-0.19-0.1c-0.05,0-0.12,0.04-0.19,0.11l-1.14,1.1
			c-0.01,0.01-0.07,0.07-0.07,0.23c0,0.16,0.06,0.22,0.07,0.23l1.12,1.09c0.13,0.12,0.29,0.08,0.4-0.01l1.13-1.09
			c0.04-0.04,0.1-0.11,0.1-0.25c0-0.05-0.01-0.12-0.09-0.2L137.08,16.2z"/>
		<path fill="#FFFFFF" d="M138.22,17.76l-1.13,1.09c-0.11,0.09-0.27,0.13-0.4,0.01l-1.12-1.09c-0.02-0.02-0.07-0.08-0.07-0.23
			c0-0.16,0.06-0.21,0.07-0.23l1.14-1.1c0.07-0.07,0.14-0.11,0.19-0.11c0.05,0,0.12,0.04,0.19,0.1l1.14,1.1
			c0.08,0.08,0.09,0.14,0.09,0.2C138.32,17.65,138.26,17.72,138.22,17.76z"/>
		<path fill="#FFFFFF" d="M156.07,10.22c-0.25-0.17-0.47-0.39-0.63-0.66c-0.26-0.39-0.4-0.85-0.4-1.37c0-0.71,0.33-1.33,0.98-1.85
			c0.67-0.54,1.6-0.81,2.76-0.81c0.45,0,0.81,0.03,1.08,0.07V4.44c-1.15-0.29-2.2-0.44-3.15-0.44c-1.35,0-2.44,0.41-3.26,1.23
			c-0.87,0.85-1.29,1.88-1.29,3.16c0,0.62,0.13,1.23,0.39,1.81l0.16,0.36l-5.17-0.01l-0.03-0.22c-0.27-1.72-0.75-3.45-1.43-5.16
			c-0.01-0.02-0.02-0.03-0.02-0.05c-0.01,0.01-0.03,0.03-0.05,0.05l-2.2,2.03c-0.08,0.07-0.11,0.13-0.11,0.21
			c0,0.09,0.04,0.26,0.21,0.56c0.28,0.49,0.55,1.15,0.79,1.96c0.29,0.98,0.43,1.76,0.43,2.41c0,1.14-0.29,2.06-0.85,2.74
			c-0.75,0.91-1.95,1.4-3.58,1.48c-0.14,0.01-0.23,0.02-0.28,0.04c0.04,0.08,0.15,0.24,0.44,0.52l1.75,1.71
			c3.26-0.47,4.92-2.35,5.07-5.73l0.03-0.65l0.42,0.49c0.2,0.23,0.46,0.36,0.79,0.38l0.2,0.01h12.35c0.34,0,0.34-0.1,0.34-0.18
			v-2.39c0-0.06,0-0.13,0-0.19h-4.69C156.77,10.56,156.42,10.45,156.07,10.22z"/>
		<path fill="#FFFFFF" d="M161.82,10.75v2.39c0,0.08,0,0.18-0.34,0.18h-12.35l-0.2-0.01c-0.33-0.02-0.59-0.15-0.79-0.38l-0.42-0.49
			l-0.03,0.65c-0.15,3.38-1.81,5.26-5.07,5.73l-1.75-1.71c-0.29-0.28-0.4-0.44-0.44-0.52c0.05-0.01,0.14-0.03,0.28-0.04
			c1.62-0.08,2.83-0.58,3.58-1.48c0.56-0.68,0.85-1.6,0.85-2.74c0-0.65-0.14-1.43-0.43-2.41c-0.24-0.81-0.5-1.47-0.79-1.96
			c-0.17-0.3-0.21-0.47-0.21-0.56c0-0.08,0.03-0.14,0.11-0.21l2.2-2.03c0.02-0.02,0.04-0.04,0.05-0.05
			c0.01,0.01,0.01,0.03,0.02,0.05c0.68,1.71,1.16,3.44,1.43,5.16l0.03,0.22l5.17,0.01l-0.16-0.36c-0.26-0.58-0.39-1.19-0.39-1.81
			c0-1.28,0.42-2.31,1.29-3.16c0.81-0.82,1.91-1.23,3.26-1.23c0.94,0,2,0.15,3.15,0.44v1.16c-0.26-0.05-0.63-0.07-1.08-0.07
			c-1.16,0-2.09,0.27-2.76,0.81c-0.65,0.52-0.98,1.14-0.98,1.85c0,0.52,0.13,0.98,0.4,1.37c0.17,0.27,0.38,0.49,0.63,0.66
			c0.35,0.23,0.7,0.34,1.05,0.34h4.69C161.82,10.63,161.82,10.69,161.82,10.75z"/>
	</g>
</g>
<g id="nyt_x5F_exporter_x5F_info" display="none">
</g>
</svg>
