<?xml version="1.0" encoding="utf-8"?>
<!-- Generator: Adobe Illustrator 16.0.0, SVG Export Plug-In . SVG Version: 6.00 Build 0)  -->
<!DOCTYPE svg PUBLIC "-//W3C//DTD SVG 1.1//EN" "http://www.w3.org/Graphics/SVG/1.1/DTD/svg11.dtd">
<svg version="1.1" xmlns="http://www.w3.org/2000/svg" xmlns:xlink="http://www.w3.org/1999/xlink" x="0px" y="0px"
	 width="122.11px" height="30px" viewBox="2844.4 -4.21 122.11 30" enable-background="new 2844.4 -4.21 122.11 30"
	 xml:space="preserve">
<g id="Layer_1">
	<g>
		<path fill="#FFFFFF" d="M2848.4,4.18h12.45v1.89h-5.2v13.05h-2.13V6.08h-5.12V4.18z"/>
		<path fill="#FFFFFF" d="M2862.92,4.18h2.14v14.95h-2.14V4.18z"/>
		<path fill="#FFFFFF" d="M2868.4,4.18h8.46v1.89h-6.33v4.59h6.12v1.93h-6.12v4.63h6.53v1.89h-8.66V4.18z M2873.58-0.21l2.07,3.3
			h-1.21l-1.91-1.89l-1.83,1.89h-1.17l2.02-3.3H2873.58z"/>
		<path fill="#FFFFFF" d="M2891.25,4.18h2.02v14.95h-1.82l-9.98-11.51v11.51h-2.01V4.18h1.73l10.07,11.61V4.18z"/>
		<path fill="#FFFFFF" d="M2904.57,11.8h4.99v6.34c-1.84,0.79-3.66,1.19-5.47,1.19c-2.47,0-4.45-0.73-5.92-2.17
			s-2.22-3.23-2.22-5.36c0-2.24,0.77-4.1,2.3-5.59c1.53-1.49,3.46-2.23,5.77-2.23c0.84,0,1.64,0.09,2.4,0.28
			c0.76,0.18,1.72,0.52,2.87,1.01v2.18c-1.78-1.05-3.55-1.57-5.31-1.57c-1.63,0-3.01,0.56-4.13,1.68c-1.12,1.12-1.68,2.49-1.68,4.12
			c0,1.71,0.56,3.1,1.68,4.18c1.12,1.08,2.56,1.62,4.32,1.62c0.85,0,1.88-0.2,3.07-0.59l0.2-0.06v-3.13h-2.86V11.8z"/>
		<path fill="#FFFFFF" d="M2931.14,4.18h2.14l-6.35,15.03h-0.51l-6.4-15.03h2.16l4.47,10.51L2931.14,4.18z"/>
		<path fill="#FFFFFF" d="M2934.91,4.18h2.14v14.95h-2.14V4.18z"/>
		<path fill="#FFFFFF" d="M2940.39,4.18h8.46v1.89h-6.32v4.59h6.12v1.93h-6.12v4.63h6.52v1.89h-8.66V4.18z M2945.57-0.21l2.07,3.3
			h-1.21l-1.91-1.89l-1.83,1.89h-1.17l2.02-3.3H2945.57z"/>
		<path fill="#FFFFFF" d="M2950.06,4.18h12.45v1.89h-5.2v13.05h-2.14V6.08h-5.12V4.18z"/>
	</g>
</g>
<g id="nyt_x5F_exporter_x5F_info" display="none">
</g>
</svg>
