<?xml version="1.0" encoding="utf-8"?>
<!-- Generator: Adobe Illustrator 16.0.0, SVG Export Plug-In . SVG Version: 6.00 Build 0)  -->
<!DOCTYPE svg PUBLIC "-//W3C//DTD SVG 1.1//EN" "http://www.w3.org/Graphics/SVG/1.1/DTD/svg11.dtd">
<svg version="1.1" id="Layer_1" xmlns="http://www.w3.org/2000/svg" xmlns:xlink="http://www.w3.org/1999/xlink" x="0px" y="0px"
	 width="94.724px" height="71.645px" viewBox="0 0 94.724 71.645" enable-background="new 0 0 94.724 71.645" xml:space="preserve">
<g>
	<rect fill="#CC0101" width="94.724" height="71.645"/>
	<g>
		<g>
			<path fill="#FFFFFF" d="M65.754,14.316c-0.062-0.01-0.127-0.021-0.192-0.031l-0.078-0.011c-0.11-0.015-0.222-0.026-0.333-0.038
				c-0.078-0.008-0.154-0.013-0.229-0.016c-0.137-0.01-0.271-0.014-0.399-0.014c-0.06,0-0.093,0.002-0.151,0.002
				c-0.107,0.002-0.212,0.006-0.318,0.014c-0.059,0.003-0.116,0.01-0.174,0.014c-0.086,0.01-0.17,0.016-0.252,0.027l-0.07,0.009
				l-0.078,0.013L63.384,14.3c-0.042,0.007-0.081,0.013-0.123,0.021c-0.058,0.011-0.112,0.021-0.167,0.032
				c-0.342,0.072-0.655,0.169-0.946,0.281c-0.149,0.06-0.294,0.12-0.431,0.188c-0.115,0.058-0.225,0.114-0.33,0.175
				c-0.102,0.059-0.199,0.117-0.293,0.184c-0.055,0.033-0.109,0.07-0.161,0.109c-0.044,0.032-0.089,0.064-0.131,0.096
				c-0.091,0.072-0.179,0.145-0.261,0.215c-0.077,0.068-0.152,0.137-0.223,0.205c-0.059,0.062-0.119,0.123-0.176,0.187
				s-0.115,0.129-0.169,0.198c-0.06,0.072-0.118,0.146-0.175,0.224c-0.041,0.059-0.082,0.118-0.12,0.179
				c-0.027,0.039-0.054,0.079-0.08,0.122c-0.149,0.245-0.28,0.507-0.388,0.786c-0.134,0.348-0.231,0.723-0.285,1.121
				c-0.016,0.125-0.029,0.254-0.035,0.383c-0.006,0.102-0.011,0.201-0.011,0.304c0,0.079,0.001,0.154,0.005,0.228
				c0.006,0.079,0.012,0.157,0.021,0.234l0.006,0.055c0.012,0.089,0.025,0.18,0.043,0.267c0.007,0.036,0.013,0.07,0.022,0.104
				c0.016,0.074,0.03,0.146,0.052,0.218c0.024,0.094,0.05,0.185,0.081,0.273c0.038,0.11,0.077,0.219,0.119,0.323
				c0.07,0.164,0.146,0.321,0.228,0.471c0.049,0.09,0.098,0.174,0.149,0.256c0.041,0.066,0.082,0.129,0.123,0.191
				c0.057,0.079,0.117,0.157,0.172,0.23c0.061,0.08,0.125,0.153,0.186,0.223c0.076,0.09,0.152,0.17,0.228,0.242l0.04,0.041
				c0.062,0.059,0.129,0.123,0.206,0.188c0.054,0.042,0.106,0.089,0.166,0.136c0.054,0.044,0.112,0.09,0.173,0.133
				c0.072,0.053,0.148,0.104,0.229,0.156c0.086,0.055,0.177,0.111,0.271,0.164c0.189,0.104,0.398,0.208,0.629,0.299
				c0.085,0.037,0.174,0.067,0.268,0.1c0.09,0.031,0.184,0.062,0.281,0.09c0.164,0.047,0.338,0.088,0.52,0.124
				c0.147,0.026,0.301,0.053,0.459,0.071c0.156,0.016,0.318,0.031,0.486,0.043c0.083,0.002,0.166,0.006,0.25,0.008
				c0.038,0,0.078,0,0.116,0c0.302,0,0.581-0.012,0.84-0.033l0.05-0.006c0.104-0.008,0.203-0.018,0.299-0.03
				c0.148-0.017,0.289-0.038,0.422-0.063c0.086-0.016,0.167-0.031,0.248-0.049c0.122-0.025,0.241-0.055,0.352-0.087
				c0.084-0.019,0.164-0.044,0.24-0.067c0.092-0.027,0.182-0.057,0.266-0.086l0.081-0.027c0.042-0.014,0.095-0.035,0.163-0.061
				c0.085-0.034,0.189-0.074,0.309-0.125c0.07-0.029,0.146-0.064,0.226-0.102c0.071-0.03,0.144-0.066,0.217-0.104
				c0.031-0.014,0.062-0.028,0.096-0.045v-1.842c-0.021,0.014-0.044,0.027-0.066,0.041l-0.128,0.076
				c-0.125,0.076-0.246,0.148-0.367,0.215c-0.135,0.073-0.264,0.139-0.395,0.201c-0.227,0.105-0.445,0.195-0.656,0.272
				c-0.4,0.144-0.77,0.235-1.096,0.292c-0.037,0.007-0.076,0.014-0.113,0.018c-0.09,0.016-0.176,0.027-0.258,0.035
				c-0.129,0.014-0.247,0.021-0.354,0.026c-0.069,0.004-0.137,0.004-0.196,0.004c-0.131,0-0.266-0.002-0.4-0.011
				c-0.162-0.015-0.323-0.031-0.49-0.059c-0.265-0.045-0.532-0.113-0.793-0.207c-0.039-0.014-0.079-0.029-0.115-0.044
				c-0.025-0.011-0.051-0.021-0.076-0.032c-0.043-0.018-0.086-0.037-0.128-0.057c-0.091-0.041-0.179-0.088-0.266-0.139
				c-0.043-0.024-0.087-0.05-0.13-0.077c-0.045-0.026-0.088-0.056-0.131-0.085c-0.055-0.039-0.106-0.076-0.158-0.116
				c-0.051-0.041-0.102-0.081-0.146-0.119l-0.061-0.056l-0.03-0.026l-0.018-0.018l-0.023-0.022
				c-0.082-0.082-0.158-0.166-0.226-0.246c-0.04-0.047-0.075-0.096-0.11-0.143c-0.035-0.044-0.065-0.092-0.096-0.135
				c-0.027-0.043-0.053-0.088-0.079-0.132c-0.038-0.063-0.073-0.128-0.104-0.193c-0.027-0.056-0.054-0.112-0.075-0.165
				c-0.04-0.092-0.074-0.188-0.103-0.275c-0.022-0.07-0.041-0.137-0.057-0.203c-0.051-0.191-0.074-0.369-0.088-0.518
				c-0.005-0.057-0.009-0.111-0.012-0.158c-0.004-0.074-0.004-0.138-0.004-0.191c0-0.031,0-0.07,0-0.114
				c0.005-0.106,0.014-0.239,0.037-0.392c0.013-0.094,0.031-0.191,0.055-0.295c0.018-0.068,0.037-0.139,0.059-0.21
				c0.021-0.065,0.045-0.132,0.068-0.2c0.019-0.047,0.038-0.092,0.059-0.137c0.025-0.062,0.057-0.125,0.089-0.188
				c0.022-0.047,0.052-0.093,0.079-0.14c0.061-0.106,0.127-0.21,0.207-0.313c0.027-0.036,0.057-0.073,0.086-0.112
				c0.04-0.047,0.08-0.096,0.124-0.141c0.021-0.023,0.043-0.046,0.067-0.069c0.336-0.337,0.715-0.591,1.107-0.769
				c0.062-0.029,0.125-0.054,0.187-0.078c0.062-0.025,0.122-0.047,0.187-0.068c0.067-0.021,0.138-0.043,0.205-0.064
				c0.064-0.017,0.13-0.033,0.195-0.046c0.064-0.017,0.13-0.03,0.194-0.042c0.071-0.014,0.142-0.023,0.212-0.032
				c0.072-0.011,0.143-0.018,0.212-0.021c0.134-0.013,0.267-0.021,0.395-0.021c0.042,0,0.085,0,0.127,0
				c0.095,0.004,0.189,0.008,0.279,0.014c0.065,0.004,0.126,0.009,0.187,0.016c0.117,0.01,0.229,0.023,0.333,0.04
				c0.097,0.013,0.187,0.03,0.273,0.047c0.132,0.027,0.253,0.057,0.36,0.083c0.07,0.021,0.136,0.039,0.194,0.055
				c0.09,0.027,0.167,0.051,0.226,0.071c0.102,0.036,0.158,0.056,0.158,0.056c0.09,0.033,0.18,0.068,0.266,0.102
				c0.118,0.049,0.229,0.1,0.337,0.148c0.089,0.04,0.174,0.082,0.253,0.123c0.064,0.029,0.127,0.061,0.184,0.092
				c0.102,0.051,0.187,0.099,0.257,0.137l0.187,0.102v-1.808c0,0-0.112-0.046-0.306-0.118c-0.087-0.034-0.189-0.072-0.305-0.113
				c-0.065-0.022-0.132-0.047-0.204-0.071c-0.058-0.021-0.115-0.04-0.178-0.06c-0.068-0.021-0.141-0.046-0.214-0.068
				c-0.052-0.016-0.106-0.031-0.163-0.049l-0.048-0.014c-0.054-0.015-0.109-0.031-0.164-0.045c-0.065-0.018-0.132-0.035-0.2-0.051
				c-0.043-0.012-0.086-0.023-0.13-0.033c-0.071-0.016-0.144-0.032-0.218-0.045C65.906,14.344,65.83,14.332,65.754,14.316z
				 M56.717,12.439h14.346v13.498H56.717V12.439z"/>
			<g>
				<path fill="#FFFFFF" d="M45.693,19.881v2.654h1.723c0,0,0.035-0.002,0.09-0.002c0.06-0.002,0.142-0.006,0.241-0.014
					c0.188-0.018,0.432-0.053,0.672-0.133c0.216-0.073,0.426-0.183,0.586-0.344c0.063-0.062,0.114-0.125,0.153-0.191
					c0.137-0.213,0.172-0.428,0.178-0.553c0.006-0.053,0.004-0.083,0.004-0.083s0.002-0.024,0-0.065
					c-0.001-0.051-0.008-0.15-0.035-0.256c-0.032-0.127-0.094-0.271-0.201-0.405c-0.021-0.026-0.043-0.05-0.065-0.076
					c-0.05-0.047-0.099-0.093-0.155-0.134c-0.094-0.069-0.201-0.129-0.319-0.18c-0.155-0.066-0.327-0.117-0.518-0.152
					c-0.098-0.018-0.202-0.034-0.307-0.043c-0.065-0.006-0.13-0.011-0.199-0.015c-0.058-0.001-0.121-0.007-0.182-0.007
					C46.747,19.883,45.693,19.881,45.693,19.881z"/>
				<path fill="#FFFFFF" d="M45.693,15.85v2.516h0.834c0,0,0.056,0,0.128-0.003c0.059-0.003,0.126-0.005,0.188-0.007
					c0.172-0.016,0.408-0.038,0.646-0.105c0.047-0.012,0.094-0.027,0.14-0.043c0.185-0.066,0.364-0.164,0.503-0.301
					c0.111-0.107,0.183-0.229,0.23-0.346c0.059-0.144,0.082-0.281,0.089-0.377c0.008-0.09,0.008-0.145,0.008-0.145
					s0-0.043-0.002-0.107c-0.005-0.107-0.028-0.287-0.116-0.458c-0.041-0.083-0.097-0.163-0.176-0.239
					c-0.093-0.092-0.208-0.163-0.329-0.218c-0.235-0.103-0.504-0.145-0.731-0.159c-0.096-0.008-0.187-0.008-0.264-0.008
					C46.672,15.85,45.693,15.85,45.693,15.85z"/>
				<path fill="#FFFFFF" d="M43.953,14.332v9.723h3.659c0,0,1.785,0.05,2.77-0.936c0.802-0.803,0.745-1.73,0.745-1.73
					s0.057-0.972-0.687-1.713c-0.632-0.633-1.439-0.801-1.439-0.801s0.364-0.172,0.646-0.451c0.132-0.132,0.599-0.555,0.599-1.578
					c0-1.033-0.688-1.625-0.688-1.625s-0.751-0.889-2.45-0.889H43.953z M40.189,12.439h14.345v13.498H40.189V12.439z"/>
			</g>
			<g>
				<path fill="#FFFFFF" d="M29.165,19.881v2.654h1.721c0,0,0.035-0.002,0.091-0.002c0.06-0.002,0.141-0.006,0.24-0.014
					c0.188-0.018,0.432-0.053,0.671-0.133c0.217-0.073,0.428-0.183,0.589-0.344c0.061-0.062,0.113-0.125,0.154-0.191
					c0.135-0.213,0.168-0.428,0.176-0.553c0.003-0.053,0.003-0.083,0.003-0.083s0.001-0.024,0-0.065
					C32.81,21.1,32.803,21,32.776,20.895c-0.032-0.127-0.093-0.271-0.201-0.405c-0.019-0.026-0.042-0.05-0.067-0.076
					c-0.048-0.047-0.098-0.093-0.154-0.134c-0.095-0.069-0.202-0.129-0.319-0.18c-0.155-0.066-0.329-0.117-0.518-0.152
					c-0.098-0.018-0.202-0.034-0.307-0.043c-0.065-0.006-0.131-0.011-0.199-0.015c-0.058-0.001-0.121-0.007-0.182-0.007
					C30.218,19.883,29.165,19.881,29.165,19.881z"/>
				<path fill="#FFFFFF" d="M29.165,15.85v2.516h0.833c0,0,0.057,0,0.13-0.003c0.059-0.003,0.126-0.005,0.187-0.007
					c0.172-0.016,0.41-0.038,0.647-0.105c0.046-0.012,0.094-0.027,0.139-0.043c0.186-0.066,0.366-0.164,0.504-0.301
					c0.109-0.107,0.183-0.229,0.231-0.346c0.059-0.144,0.081-0.281,0.089-0.377c0.006-0.09,0.006-0.145,0.006-0.145
					s0.002-0.043-0.001-0.107c-0.006-0.107-0.03-0.287-0.116-0.458c-0.042-0.083-0.097-0.163-0.175-0.239
					c-0.095-0.092-0.208-0.163-0.331-0.218c-0.234-0.103-0.502-0.145-0.73-0.159c-0.097-0.008-0.188-0.008-0.264-0.008
					C30.142,15.85,29.165,15.85,29.165,15.85z"/>
				<path fill="#FFFFFF" d="M27.423,14.332v9.723h3.661c0,0,1.784,0.05,2.77-0.936c0.801-0.803,0.744-1.73,0.744-1.73
					s0.058-0.972-0.686-1.713c-0.632-0.633-1.44-0.801-1.44-0.801s0.364-0.172,0.646-0.451c0.13-0.132,0.598-0.555,0.598-1.578
					c0-1.033-0.688-1.625-0.688-1.625s-0.751-0.889-2.45-0.889H27.423z M23.66,12.439h14.345v13.498H23.66V12.439z"/>
			</g>
		</g>
		<g>
			<g>
				<path fill="#FFFFFF" d="M28.8,42.617h-0.337l-3.968-9.887l-4.004,9.887h-0.336l-4.891-12.189h1.737l3.331,8.326l3.349-8.326
					h1.648l3.367,8.326l3.295-8.326h1.719L28.8,42.617z"/>
				<path fill="#FFFFFF" d="M40.303,30.268c3.987,0,6.502,2.836,6.502,6.201c0,3.26-2.445,6.2-6.538,6.2
					c-3.952,0-6.45-2.922-6.45-6.2C33.817,33.119,36.387,30.268,40.303,30.268z M40.303,41.076c2.711,0,4.713-1.967,4.713-4.607
					c0-2.658-2.002-4.607-4.713-4.607c-2.694,0-4.696,1.949-4.696,4.607C35.607,39.109,37.609,41.076,40.303,41.076z"/>
				<path fill="#FFFFFF" d="M52.016,30.428c2.445,0,3.969,1.293,3.969,3.383c0,1.4-0.727,2.445-2.02,2.959
					c1.098,0.728,1.771,1.842,2.692,3.351c0.515,0.831,0.815,1.239,1.648,2.392h-2.073l-1.596-2.48
					c-1.594-2.481-2.32-2.766-3.206-2.766h-0.727v5.246h-1.737V30.428H52.016z M50.704,35.707h1.116
					c1.859,0,2.393-0.957,2.375-1.968c-0.019-1.134-0.693-1.825-2.375-1.825h-1.116V35.707z"/>
				<path fill="#FFFFFF" d="M61.354,40.951h5.457v1.561h-7.194V30.428h1.737V40.951z"/>
				<path fill="#FFFFFF" d="M68.334,30.428h4.695c4.466,0,6.432,3.189,6.432,6.041c0,3.101-2.427,6.043-6.414,6.043h-4.713V30.428z
					 M70.07,40.951h2.764c3.934,0,4.838-2.992,4.838-4.482c0-2.428-1.541-4.481-4.926-4.481H70.07V40.951z"/>
			</g>
			<g>
				<path fill="#FFFFFF" d="M23.262,48.43c-1.028-0.975-2.02-1.256-2.835-1.256c-1.116,0-1.914,0.582-1.914,1.433
					c0,2.321,5.227,2.289,5.227,6.131c0,1.896-1.435,3.278-3.385,3.278c-1.311,0-2.374-0.354-3.383-1.115v-2.197
					c0.885,1.134,2.002,1.756,3.189,1.756c1.347,0,1.966-0.854,1.966-1.527c0-2.498-5.226-2.781-5.226-6.094
					c0-1.967,1.453-3.225,3.667-3.225c0.921,0,1.843,0.283,2.693,0.852V48.43z"/>
				<path fill="#FFFFFF" d="M32.494,47.33h-5.121v3.652h4.943v1.558h-4.943v3.759h5.281v1.559h-7.017V45.771h6.857V47.33z"/>
				<path fill="#FFFFFF" d="M37.579,45.771c2.444,0,3.969,1.295,3.969,3.385c0,1.4-0.727,2.446-2.021,2.96
					c1.099,0.727,1.772,1.841,2.693,3.349c0.514,0.834,0.815,1.24,1.648,2.393h-2.073l-1.595-2.482
					c-1.595-2.479-2.32-2.764-3.207-2.764h-0.727v5.246h-1.737V45.771H37.579z M36.268,51.053h1.116
					c1.861,0,2.392-0.956,2.375-1.967c-0.018-1.134-0.69-1.826-2.375-1.826h-1.116V51.053z"/>
				<path fill="#FFFFFF" d="M48.036,57.963h-0.354l-5.228-12.191h1.737l3.633,8.488l3.614-8.488h1.719L48.036,57.963z"/>
				<path fill="#FFFFFF" d="M56.24,57.857h-1.738V45.771h1.738V57.857z"/>
				<path fill="#FFFFFF" d="M69.209,48.467c-1.486-0.869-2.764-1.259-4.162-1.259c-2.766,0-4.82,1.966-4.82,4.624
					c0,2.712,1.984,4.59,4.891,4.59c1.364,0,2.854-0.479,4.217-1.365v1.896c-1.188,0.621-2.479,1.062-4.376,1.062
					c-4.536,0-6.521-3.49-6.521-6.024c0-3.686,2.782-6.378,6.628-6.378c1.24,0,2.498,0.3,4.145,0.991V48.467z"/>
				<path fill="#FFFFFF" d="M78.317,47.33h-5.121v3.652h4.944v1.558h-4.944v3.759h5.28v1.559h-7.016V45.771h6.856V47.33z"/>
			</g>
		</g>
	</g>
</g>
<g>
</g>
<g>
</g>
<g>
</g>
<g>
</g>
<g>
</g>
<g>
</g>
<g>
</g>
<g>
</g>
<g>
</g>
<g>
</g>
<g>
</g>
<g>
</g>
<g>
</g>
<g>
</g>
<g>
</g>
</svg>
