<?xml version="1.0" encoding="utf-8"?>
<!-- Generator: Adobe Illustrator 16.0.0, SVG Export Plug-In . SVG Version: 6.00 Build 0)  -->
<!DOCTYPE svg PUBLIC "-//W3C//DTD SVG 1.1//EN" "http://www.w3.org/Graphics/SVG/1.1/DTD/svg11.dtd">
<svg version="1.1" id="Layer_1" xmlns="http://www.w3.org/2000/svg" xmlns:xlink="http://www.w3.org/1999/xlink" x="0px" y="0px"
	 width="211.12px" height="60.48px" viewBox="0 0 211.12 60.48" enable-background="new 0 0 211.12 60.48" xml:space="preserve">
<g>
	<defs>
		<rect id="SVGID_1_" width="211.12" height="60.48"/>
	</defs>
	<clipPath id="SVGID_2_">
		<use xlink:href="#SVGID_1_"  overflow="visible"/>
	</clipPath>
	<path clip-path="url(#SVGID_2_)" fill="#FFFFFF" d="M187.41,8.57c-0.28-0.05-0.57-0.1-0.86-0.14l-0.34-0.05
		c-0.49-0.07-0.98-0.12-1.48-0.17c-0.34-0.03-0.68-0.05-1.02-0.08c-0.6-0.04-1.2-0.05-1.77-0.05c-0.26,0-0.41,0-0.67,0.01
		c-0.48,0.01-0.95,0.03-1.42,0.06c-0.26,0.02-0.52,0.04-0.78,0.06c-0.38,0.03-0.76,0.08-1.12,0.12l-0.31,0.04l-0.34,0.05l-0.42,0.07
		c-0.19,0.03-0.37,0.06-0.55,0.1c-0.25,0.05-0.5,0.1-0.75,0.15c-1.51,0.32-2.91,0.75-4.21,1.25c-0.67,0.26-1.31,0.54-1.92,0.84
		c-0.51,0.25-1,0.5-1.46,0.78c-0.46,0.26-0.89,0.53-1.31,0.81c-0.24,0.16-0.48,0.32-0.71,0.49c-0.2,0.14-0.4,0.29-0.59,0.44
		c-0.4,0.31-0.79,0.63-1.16,0.95c-0.34,0.3-0.67,0.61-0.98,0.92c-0.27,0.27-0.53,0.54-0.79,0.82c-0.26,0.29-0.51,0.57-0.75,0.88
		c-0.27,0.33-0.53,0.66-0.78,1.01c-0.18,0.26-0.36,0.52-0.54,0.78c-0.12,0.18-0.23,0.36-0.35,0.55c-0.67,1.09-1.25,2.25-1.73,3.5
		c-0.6,1.55-1.03,3.22-1.27,4.99c-0.07,0.56-0.13,1.13-0.17,1.71c-0.03,0.44-0.04,0.9-0.04,1.35c0,0.34,0,0.68,0.02,1.01
		c0.02,0.35,0.05,0.69,0.09,1.04l0.03,0.24c0.05,0.41,0.12,0.8,0.19,1.2c0.03,0.15,0.06,0.31,0.09,0.46
		c0.07,0.33,0.15,0.65,0.23,0.97c0.11,0.41,0.23,0.82,0.36,1.22c0.17,0.49,0.34,0.96,0.53,1.43c0.31,0.74,0.64,1.44,1.01,2.1
		c0.21,0.39,0.43,0.77,0.66,1.13c0.18,0.29,0.37,0.57,0.56,0.85c0.25,0.36,0.51,0.71,0.76,1.04c0.27,0.35,0.55,0.68,0.82,0.99
		c0.34,0.39,0.68,0.75,1.01,1.08l0.18,0.18c0.28,0.26,0.57,0.55,0.91,0.84c0.23,0.2,0.47,0.41,0.74,0.61
		c0.24,0.19,0.5,0.39,0.77,0.58c0.32,0.23,0.66,0.47,1.02,0.7c0.38,0.24,0.78,0.49,1.21,0.73c0.84,0.47,1.77,0.92,2.8,1.34
		c0.38,0.15,0.78,0.3,1.19,0.44c0.41,0.14,0.82,0.27,1.25,0.39c0.73,0.21,1.51,0.4,2.32,0.55c0.65,0.13,1.33,0.23,2.03,0.32
		c0.7,0.08,1.42,0.15,2.17,0.19c0.36,0.02,0.73,0.03,1.11,0.04c0.17,0,0.35,0.01,0.52,0.01c1.34,0,2.58-0.05,3.73-0.15l0.23-0.02
		c0.46-0.04,0.9-0.09,1.33-0.14c0.66-0.08,1.29-0.18,1.88-0.29c0.38-0.07,0.74-0.14,1.1-0.22c0.55-0.12,1.07-0.25,1.57-0.38
		c0.37-0.1,0.72-0.2,1.07-0.3c0.41-0.12,0.81-0.25,1.18-0.38l0.36-0.13c0.18-0.06,0.43-0.15,0.72-0.27
		c0.38-0.15,0.85-0.33,1.38-0.56c0.31-0.14,0.66-0.29,1-0.45c0.31-0.14,0.64-0.3,0.97-0.46c0.14-0.07,0.28-0.13,0.42-0.2v-8.19
		c-0.09,0.06-0.2,0.12-0.29,0.18l-0.56,0.34c-0.56,0.34-1.1,0.66-1.64,0.96c-0.59,0.32-1.17,0.62-1.75,0.89
		c-1.01,0.48-1.98,0.88-2.92,1.22c-1.78,0.64-3.42,1.05-4.87,1.3c-0.17,0.03-0.34,0.06-0.51,0.08c-0.4,0.06-0.78,0.11-1.15,0.15
		c-0.57,0.06-1.1,0.1-1.58,0.12c-0.31,0.01-0.6,0.02-0.87,0.02c-0.58,0-1.18-0.02-1.79-0.06c-0.71-0.05-1.44-0.13-2.17-0.25
		c-1.19-0.2-2.37-0.5-3.54-0.92c-0.17-0.06-0.34-0.13-0.52-0.2c-0.11-0.04-0.22-0.09-0.33-0.14c-0.19-0.08-0.38-0.16-0.57-0.25
		c-0.4-0.19-0.8-0.39-1.19-0.61c-0.19-0.11-0.38-0.22-0.58-0.35c-0.19-0.12-0.39-0.25-0.58-0.38c-0.24-0.17-0.48-0.34-0.71-0.52
		c-0.22-0.18-0.45-0.36-0.64-0.53l-0.27-0.24l-0.13-0.12l-0.08-0.08l-0.1-0.1c-0.37-0.37-0.71-0.74-1.01-1.1
		c-0.17-0.21-0.33-0.42-0.49-0.63c-0.15-0.2-0.29-0.41-0.42-0.61c-0.13-0.19-0.25-0.39-0.36-0.58c-0.17-0.29-0.32-0.58-0.46-0.87
		c-0.12-0.24-0.23-0.49-0.34-0.73c-0.18-0.41-0.33-0.83-0.45-1.22c-0.1-0.31-0.18-0.62-0.26-0.91c-0.21-0.86-0.33-1.64-0.39-2.3
		c-0.02-0.26-0.04-0.49-0.05-0.71c-0.02-0.33-0.02-0.61-0.02-0.84c0-0.15,0-0.32,0.01-0.52c0.02-0.47,0.05-1.06,0.15-1.74
		c0.06-0.41,0.14-0.85,0.25-1.31c0.07-0.31,0.16-0.62,0.26-0.94c0.09-0.29,0.2-0.58,0.31-0.89c0.08-0.2,0.16-0.4,0.25-0.61
		c0.12-0.28,0.25-0.55,0.4-0.84c0.11-0.21,0.23-0.42,0.35-0.63c0.27-0.47,0.58-0.93,0.92-1.39c0.12-0.17,0.25-0.33,0.39-0.49
		c0.17-0.21,0.36-0.42,0.55-0.63c0.1-0.1,0.19-0.21,0.29-0.31c1.5-1.5,3.19-2.62,4.94-3.42c0.27-0.12,0.55-0.23,0.82-0.34
		c0.28-0.11,0.55-0.21,0.84-0.3c0.3-0.1,0.61-0.19,0.91-0.28c0.29-0.08,0.58-0.15,0.86-0.22c0.29-0.07,0.58-0.12,0.87-0.18
		c0.32-0.06,0.63-0.11,0.95-0.15c0.32-0.04,0.63-0.07,0.94-0.1c0.6-0.05,1.18-0.08,1.76-0.08c0.19,0,0.38,0,0.57,0
		c0.42,0.01,0.84,0.02,1.24,0.05c0.28,0.02,0.56,0.04,0.83,0.06c0.52,0.05,1.01,0.11,1.49,0.18c0.42,0.06,0.83,0.14,1.21,0.21
		c0.59,0.12,1.13,0.25,1.61,0.37c0.31,0.08,0.6,0.17,0.87,0.25c0.4,0.12,0.74,0.22,1,0.31c0.45,0.16,0.71,0.25,0.71,0.25
		c0.4,0.14,0.79,0.3,1.18,0.46c0.52,0.21,1.02,0.43,1.49,0.65c0.4,0.18,0.77,0.36,1.13,0.54c0.29,0.14,0.56,0.29,0.82,0.42
		c0.45,0.23,0.83,0.44,1.14,0.61l0.83,0.46v-8.04c0,0-0.5-0.21-1.37-0.53c-0.38-0.15-0.83-0.32-1.35-0.5
		c-0.29-0.1-0.59-0.21-0.91-0.32c-0.25-0.08-0.52-0.18-0.79-0.27c-0.31-0.1-0.62-0.2-0.95-0.3c-0.23-0.07-0.48-0.15-0.72-0.22
		l-0.22-0.06c-0.24-0.07-0.48-0.14-0.73-0.2c-0.29-0.08-0.59-0.15-0.89-0.23c-0.19-0.05-0.38-0.09-0.58-0.14
		c-0.32-0.07-0.64-0.14-0.96-0.21C188.09,8.69,187.75,8.63,187.41,8.57L187.41,8.57z M147.21,0.21h63.82v60.06h-63.82V0.21
		L147.21,0.21z"/>
	<path clip-path="url(#SVGID_2_)" fill="#FFFFFF" d="M98.16,33.33v11.8h7.66c0,0,0.15,0,0.4-0.01c0.26-0.01,0.62-0.02,1.07-0.06
		c0.84-0.08,1.93-0.23,2.99-0.59c0.96-0.32,1.9-0.81,2.61-1.53c0.27-0.28,0.5-0.56,0.69-0.85c0.6-0.95,0.75-1.91,0.79-2.46
		c0.02-0.24,0.02-0.38,0.02-0.38s0-0.11,0-0.29c-0.01-0.23-0.04-0.67-0.16-1.14c-0.14-0.56-0.41-1.21-0.89-1.8
		c-0.09-0.11-0.19-0.23-0.3-0.33c-0.21-0.21-0.44-0.41-0.69-0.6c-0.42-0.31-0.9-0.57-1.42-0.8c-0.69-0.3-1.46-0.52-2.31-0.68
		c-0.43-0.08-0.89-0.15-1.36-0.19c-0.29-0.03-0.58-0.05-0.88-0.07c-0.26-0.02-0.54-0.03-0.81-0.03
		C102.85,33.33,98.16,33.33,98.16,33.33L98.16,33.33z"/>
	<path clip-path="url(#SVGID_2_)" fill="#FFFFFF" d="M98.16,15.39v11.19h3.71c0,0,0.25,0,0.57-0.01c0.26-0.01,0.56-0.03,0.83-0.04
		c0.76-0.06,1.82-0.16,2.88-0.46c0.21-0.06,0.41-0.12,0.62-0.19c0.83-0.29,1.62-0.73,2.24-1.33c0.49-0.48,0.82-1.02,1.03-1.54
		c0.26-0.64,0.35-1.25,0.39-1.69c0.03-0.39,0.03-0.63,0.03-0.63s0.01-0.18-0.01-0.48c-0.03-0.49-0.13-1.28-0.51-2.04
		c-0.19-0.36-0.44-0.72-0.79-1.06c-0.42-0.41-0.92-0.73-1.47-0.97c-1.04-0.46-2.24-0.64-3.25-0.71c-0.44-0.03-0.84-0.04-1.18-0.04
		C102.51,15.39,98.16,15.39,98.16,15.39L98.16,15.39z"/>
	<path clip-path="url(#SVGID_2_)" fill="#FFFFFF" d="M90.41,8.63v43.25h16.28c0,0,7.94,0.22,12.32-4.17c3.57-3.57,3.31-7.7,3.31-7.7
		s0.26-4.31-3.05-7.62c-2.81-2.81-6.41-3.56-6.41-3.56s1.62-0.76,2.87-2.01c0.58-0.58,2.66-2.46,2.66-7.02
		c0-4.59-3.06-7.23-3.06-7.23s-3.35-3.95-10.9-3.95H90.41L90.41,8.63z M73.67,0.21h63.82v60.06H73.67V0.21L73.67,0.21z"/>
	<path clip-path="url(#SVGID_2_)" fill="#FFFFFF" d="M24.62,33.33v11.8h7.66c0,0,0.15,0,0.4-0.01c0.26-0.01,0.62-0.02,1.07-0.06
		c0.84-0.08,1.93-0.23,2.99-0.59c0.96-0.32,1.9-0.81,2.61-1.53c0.28-0.28,0.5-0.56,0.69-0.85c0.6-0.95,0.75-1.91,0.79-2.46
		c0.02-0.24,0.02-0.38,0.02-0.38s0-0.11,0-0.29c-0.01-0.23-0.04-0.67-0.16-1.14c-0.14-0.56-0.41-1.21-0.9-1.8
		c-0.09-0.11-0.19-0.23-0.3-0.33c-0.21-0.21-0.44-0.41-0.69-0.6c-0.42-0.31-0.9-0.57-1.42-0.8c-0.69-0.3-1.46-0.52-2.31-0.68
		c-0.43-0.08-0.89-0.15-1.36-0.19c-0.29-0.03-0.58-0.05-0.88-0.07c-0.26-0.02-0.54-0.03-0.81-0.03
		C29.31,33.33,24.62,33.33,24.62,33.33L24.62,33.33z"/>
	<path clip-path="url(#SVGID_2_)" fill="#FFFFFF" d="M24.62,15.39v11.19h3.71c0,0,0.25,0,0.57-0.01c0.26-0.01,0.56-0.03,0.83-0.04
		c0.76-0.06,1.82-0.16,2.88-0.46c0.21-0.06,0.41-0.12,0.62-0.19c0.83-0.29,1.62-0.73,2.24-1.33c0.49-0.48,0.81-1.02,1.03-1.54
		c0.26-0.64,0.35-1.25,0.39-1.69c0.03-0.39,0.03-0.63,0.03-0.63s0.01-0.18-0.01-0.48c-0.03-0.49-0.13-1.28-0.51-2.04
		c-0.19-0.36-0.44-0.72-0.79-1.06c-0.42-0.41-0.92-0.73-1.47-0.97c-1.04-0.46-2.24-0.64-3.25-0.71c-0.44-0.03-0.84-0.04-1.18-0.04
		C28.98,15.39,24.62,15.39,24.62,15.39L24.62,15.39z"/>
	<path clip-path="url(#SVGID_2_)" fill="#FFFFFF" d="M16.88,8.63v43.25h16.28c0,0,7.94,0.22,12.32-4.17c3.57-3.57,3.31-7.7,3.31-7.7
		s0.26-4.31-3.05-7.62c-2.81-2.81-6.41-3.56-6.41-3.56s1.62-0.76,2.87-2.01c0.58-0.58,2.66-2.46,2.66-7.02
		c0-4.59-3.06-7.23-3.06-7.23s-3.35-3.95-10.9-3.95H16.88L16.88,8.63z M0.14,0.21h63.82v60.06H0.14V0.21L0.14,0.21z"/>
</g>
</svg>
