<?xml version="1.0" encoding="utf-8"?>
<!-- Generator: Adobe Illustrator 16.0.0, SVG Export Plug-In . SVG Version: 6.00 Build 0)  -->
<!DOCTYPE svg PUBLIC "-//W3C//DTD SVG 1.1//EN" "http://www.w3.org/Graphics/SVG/1.1/DTD/svg11.dtd">
<svg version="1.1" id="Layer_1" xmlns="http://www.w3.org/2000/svg" xmlns:xlink="http://www.w3.org/1999/xlink" x="0px" y="0px"
	 width="1097px" height="268px" viewBox="0 0 1097 268" enable-background="new 0 0 1097 268" xml:space="preserve">
<line fill="none" stroke="#17B2B2" stroke-width="3" stroke-miterlimit="10" x1="4" y1="264" x2="1093" y2="4"/>
<g>
	<circle fill="#3C4141" cx="4" cy="264" r="2.5"/>
	<path fill="#17B2B2" d="M4,263c0.55,0,1,0.45,1,1s-0.45,1-1,1s-1-0.45-1-1S3.45,263,4,263 M4,260c-2.21,0-4,1.79-4,4s1.79,4,4,4
		s4-1.79,4-4S6.21,260,4,260L4,260z"/>
</g>
<g>
	<circle fill="#3C4141" cx="103" cy="240" r="2.5"/>
	<path fill="#17B2B2" d="M103,239c0.55,0,1,0.45,1,1s-0.45,1-1,1s-1-0.45-1-1S102.45,239,103,239 M103,236c-2.21,0-4,1.79-4,4
		s1.79,4,4,4s4-1.79,4-4S105.21,236,103,236L103,236z"/>
</g>
<g>
	<circle fill="#3C4141" cx="202" cy="217" r="2.5"/>
	<path fill="#17B2B2" d="M202,216c0.55,0,1,0.45,1,1s-0.45,1-1,1s-1-0.45-1-1S201.45,216,202,216 M202,213c-2.21,0-4,1.79-4,4
		s1.79,4,4,4s4-1.79,4-4S204.21,213,202,213L202,213z"/>
</g>
<g>
	<circle fill="#3C4141" cx="301" cy="193" r="2.5"/>
	<path fill="#17B2B2" d="M301,192c0.55,0,1,0.45,1,1s-0.45,1-1,1s-1-0.45-1-1S300.45,192,301,192 M301,189c-2.21,0-4,1.79-4,4
		s1.79,4,4,4s4-1.79,4-4S303.21,189,301,189L301,189z"/>
</g>
<g>
	<circle fill="#3C4141" cx="400" cy="170" r="2.5"/>
	<path fill="#17B2B2" d="M400,169c0.55,0,1,0.45,1,1s-0.45,1-1,1s-1-0.45-1-1S399.45,169,400,169 M400,166c-2.21,0-4,1.79-4,4
		s1.79,4,4,4s4-1.79,4-4S402.21,166,400,166L400,166z"/>
</g>
<g>
	<circle fill="#3C4141" cx="499" cy="146" r="2.5"/>
	<path fill="#17B2B2" d="M499,145c0.55,0,1,0.45,1,1s-0.45,1-1,1s-1-0.45-1-1S498.45,145,499,145 M499,142c-2.21,0-4,1.79-4,4
		s1.79,4,4,4s4-1.79,4-4S501.21,142,499,142L499,142z"/>
</g>
<g>
	<circle fill="#3C4141" cx="598" cy="122" r="2.5"/>
	<path fill="#17B2B2" d="M598,121c0.55,0,1,0.45,1,1s-0.45,1-1,1s-1-0.45-1-1S597.45,121,598,121 M598,118c-2.21,0-4,1.79-4,4
		s1.79,4,4,4s4-1.79,4-4S600.21,118,598,118L598,118z"/>
</g>
<g>
	<circle fill="#3C4141" cx="697" cy="99" r="2.5"/>
	<path fill="#17B2B2" d="M697,98c0.55,0,1,0.45,1,1s-0.45,1-1,1s-1-0.45-1-1S696.45,98,697,98 M697,95c-2.21,0-4,1.79-4,4
		s1.79,4,4,4s4-1.79,4-4S699.21,95,697,95L697,95z"/>
</g>
<g>
	<circle fill="#3C4141" cx="796" cy="75" r="2.5"/>
	<path fill="#17B2B2" d="M796,74c0.55,0,1,0.45,1,1s-0.45,1-1,1s-1-0.45-1-1S795.45,74,796,74 M796,71c-2.21,0-4,1.79-4,4
		s1.79,4,4,4s4-1.79,4-4S798.21,71,796,71L796,71z"/>
</g>
<g>
	<circle fill="#3C4141" cx="895" cy="52" r="2.5"/>
	<path fill="#17B2B2" d="M895,51c0.55,0,1,0.45,1,1s-0.45,1-1,1s-1-0.45-1-1S894.45,51,895,51 M895,48c-2.21,0-4,1.79-4,4
		s1.79,4,4,4s4-1.79,4-4S897.21,48,895,48L895,48z"/>
</g>
<g>
	<circle fill="#3C4141" cx="994" cy="28" r="2.5"/>
	<path fill="#17B2B2" d="M994,27c0.55,0,1,0.45,1,1s-0.45,1-1,1s-1-0.45-1-1S993.45,27,994,27 M994,24c-2.21,0-4,1.79-4,4
		s1.79,4,4,4s4-1.79,4-4S996.21,24,994,24L994,24z"/>
</g>
<g>
	<circle fill="#3C4141" cx="1093" cy="4" r="2.5"/>
	<path fill="#17B2B2" d="M1093,3c0.55,0,1,0.45,1,1s-0.45,1-1,1s-1-0.45-1-1S1092.45,3,1093,3 M1093,0c-2.21,0-4,1.79-4,4
		s1.79,4,4,4s4-1.79,4-4S1095.21,0,1093,0L1093,0z"/>
</g>
<g>
</g>
<g>
</g>
<g>
</g>
<g>
</g>
<g>
</g>
<g>
</g>
<g>
</g>
<g>
</g>
<g>
</g>
<g>
</g>
<g>
</g>
<g>
</g>
<g>
</g>
<g>
</g>
<g>
</g>
</svg>
