<?xml version="1.0" encoding="utf-8"?>
<!-- Generator: Adobe Illustrator 16.0.0, SVG Export Plug-In . SVG Version: 6.00 Build 0)  -->
<!DOCTYPE svg PUBLIC "-//W3C//DTD SVG 1.1//EN" "http://www.w3.org/Graphics/SVG/1.1/DTD/svg11.dtd">
<svg version="1.1" id="Layer_1" xmlns="http://www.w3.org/2000/svg" xmlns:xlink="http://www.w3.org/1999/xlink" x="0px" y="0px"
	 width="90px" height="75.399px" viewBox="0 0 90 75.399" enable-background="new 0 0 90 75.399" xml:space="preserve">
<path fill="#180A00" d="M59.4,39.601c-2,0-3.7,1.6-3.7,3.699c0,2,1.7,3.7,3.7,3.7s3.6-1.7,3.6-3.7
	C63.1,41.3,61.4,39.601,59.4,39.601L59.4,39.601z"/>
<path fill="#180A00" d="M6.8,39.601c-2,0-3.7,1.6-3.7,3.699c0,2,1.6,3.7,3.7,3.7c2,0,3.6-1.7,3.6-3.7S8.8,39.601,6.8,39.601
	L6.8,39.601z"/>
<path fill="#180A00" d="M48.5,33c-3,0-5.5,2.5-5.5,5.5s2.5,5.5,5.5,5.5s5.5-2.5,5.5-5.5C54,35.4,51.5,33,48.5,33L48.5,33z"/>
<path fill="#180A00" d="M65.4,66.101h-6.2V54.7c0-2-0.601-3.801-1.5-5.4c0.5-0.1,1.1-0.3,1.7-0.3c3.3,0,6,2.7,6,6V66.101z"/>
<path fill="#180A00" d="M17.7,33c-3,0-5.5,2.5-5.5,5.5s2.4,5.5,5.5,5.5c3,0,5.5-2.5,5.5-5.5C23.1,35.4,20.7,33,17.7,33L17.7,33z"/>
<path fill="#180A00" d="M6.8,49c0.6,0,1.2,0.101,1.7,0.3c-0.9,1.6-1.5,3.4-1.5,5.4v11.4H0.8v-11C0.8,51.7,3.5,49,6.8,49L6.8,49z"/>
<path fill="#180A00" d="M33.1,22.1c-4.5,0-8.1,3.6-8.1,8.1c0,4.4,3.6,8.1,8.1,8.1c4.4,0,8.1-3.6,8.1-8.1S37.5,22.1,33.1,22.1
	L33.1,22.1z"/>
<path fill="#180A00" d="M57.2,70.399h-9.5V53c0-2.399-0.601-4.601-1.601-6.601C46.9,46.2,47.7,46,48.6,46c4.801,0,8.7,3.899,8.7,8.7
	v15.699H57.2z"/>
<path fill="#180A00" d="M18.5,53v17.399H9V54.7c0-4.801,3.9-8.7,8.7-8.7c0.8,0,1.7,0.2,2.4,0.399C19.1,48.399,18.5,50.601,18.5,53
	L18.5,53z"/>
<path fill="#180A00" d="M20.5,75.399h25.3V53c0-7-5.7-12.601-12.6-12.601c-7,0-12.6,5.701-12.6,12.601v22.399H20.5z"/>
<polygon fill="#180A00" points="57.7,0 52.4,30.7 89.3,0 "/>
</svg>
