<?xml version="1.0" encoding="utf-8"?>
<!-- Generator: Adobe Illustrator 16.0.0, SVG Export Plug-In . SVG Version: 6.00 Build 0)  -->
<!DOCTYPE svg PUBLIC "-//W3C//DTD SVG 1.1//EN" "http://www.w3.org/Graphics/SVG/1.1/DTD/svg11.dtd">
<svg version="1.1" id="Isolation_Mode" xmlns="http://www.w3.org/2000/svg" xmlns:xlink="http://www.w3.org/1999/xlink" x="0px"
	 y="0px" width="490.601px" height="255.4px" viewBox="43.3 44.8 490.601 255.4" enable-background="new 43.3 44.8 490.601 255.4"
	 xml:space="preserve">
<path fill="#B34109" d="M206.4,206.2l20.2,9.8l-11.5,23.6l-11.5,1.801l-1.8,9.199l-23.6,20.2l-11,20.7l8.1,8.7l-13.2-3.5l-4.6-11.5
	l13.2-53.601l-11-9.8l-5.2-20.7l6.2-10.1l-5.6,0.9l-8.1-10.4l-6.9-3.5l-16.1-5.7l-13.3-20.8l-8-15v-20.1L89.4,93.9L72.7,83.5
	l-10.4,5.8l-19,9.2l12.1-9.8l-7.5-1.8l-2.8-9.8l8.6-6.9L45.1,69l1.7-6.3h6.3l-5.7-8.6l15.5-9.3l28.2,15.6l10.4-9.8L124,63.9
	l43.2-4.6v21.9l-17.3,3.4l-3.5,9.3l16.8,17.9l4-0.6l2.9-22.4l11-0.6l4.6,12.7l5.7-3.5l12.7,28.2l-17.9,8l-13.8,7.5l-11,15v7.5
	l-4,0.6l-2.9-8.1l-15.5,2.3l-3.5,9.8l4,5.8l5.7-4.6l5.8,0.5l-2.9,8.3l6.9,0.5l2.3,8.6l4.6,1.601l3.5-5.601l23,2.3l15.6,11.5
	L206.4,206.2z M479.3,201.1l-1.2,9.801l-8.3-3l1.5-5.301l-9.1-0.699L450.4,212.8L438,217.4l3,16.899l-1.1,3.4l4.6,2.6l18.5-4.6
	l7.2,4.2l3.399-1.9l2.2,6.9l9.4,2.6l6.8-4.2l3.8-20.399l-10.2-10.2L479.3,201.1z M433.5,191.6l9.8,1.9l4.5-13.9l-2.6-2.3l-13.2,8.3
	L433.5,191.6z M463.7,187.8l10.2,10.5l5.899,0.4l2.5-2.3l8.3,5.3l-3.3-7.101l-15.5-7.6L463.7,187.8z M482.2,102.1H479.6l-0.399,13.6
	l-6.8,14.4l-8.7,6.4l-0.3,5.7l15.8-9.4l0.8-9.8l5.3-4.9l-4.2-3.3l2.301-8L482.2,102.1z M523,239.2l1.1,10.5l-11.699,11l7.5,0.7
	l6.8-10.2l5.3-7.101l-3.4-0.399L523,239.2z M270.6,80.2v11l7.6-3.4l2.2-3.4l-8.3-15.9l-4.9,3.4l0.3,4.2l-4.6,5.6l-0.3,5.8h5.5
	L270.6,80.2z M339.7,209.8l-0.4,12.2l4.9,2.2l4.899-14.7l-1.3-6.1L339.7,209.8z M509.4,81.7l0.399,8.7l-9.8,12.1l-0.4-13.6
	L512.4,73.4l-7.9,1.2l-10.2,8.3l-12.5-0.8l-9.399,9.1l6.8,4.9l-7.9,21.9l-6.8,1.1l-4.2,6l1.9,8l-4.9,2.6l-1.5-7.2l-4.2-5.7l-5.699,6
	l4.5,12.8l-6.4,11.7l-14,0.8l-3,4.9l6.4,9.4l-6.801,5.7l-7-7.2l-0.199,6.8l6.1,6.8l2.6,12.1l7.601,2.601l10.2,4.2L427,196l-8-7.6
	l-7.1-10.2l9.8,4.899l-4.5-8.3l-0.9-11.3l-4.3,1.1l-5.3-11.3L392,163.7v6.5l-5.3,5.2l-6.7-17l-7.6-9.1l-18.2-3.4l-5.3-4.5
	l-2.601,1.5l3.8,9.1l6-3.1l8,6l-23.399,14L328.6,145.1l-2.6,0.5l12.4,28.2l12.1-5.7l-3.8,13.2L334.6,192.2l1.9,16.2l-6.8,5.3
	L317.3,237.1l-12.5,2.2l-11-26.399L296.4,200.8l-6.8-21.1l-23,1.5L253.8,169l2.2-20.4l12.5-15.1l24.2-4.1l1.5,6.4l9.8,6.4l3.8-5.3
	l15,3.9l3.9-2.4l1.7-5.7L318,131l-3.3-5.8l-2.5-1.2l-2.101,7.3l-4.6-5.9l0.3-4.9l-6.1-4.9l-3.601-1.8l0.301,4.9l7.699,5.2l-4,4.6
	l-5.5-7.3l-4-4.6l-9.1,4.6l-6.4,10.1l-9.8-1.5l-0.6-12.2l12.5,0.9l-3.9-6.4l-2.5-5.2l9.5-3.1l5.2-7l4.3-0.4l-0.9-4l2.8-3.6l2.1,6.1
	l12,0.3l3.3-8.6l4.601,1.6l-1.601-5.8l7.101-2.3l-2.2-2.6l-6.4,1.8l-2.199-5.4l-0.301-0.1l0.2-0.4l-0.899-2.3l2.6-1.8l2.2-5.7
	l-2.4-0.3l-4,4.9l-3.3,7.3l3.7,4l-3.7,9.8l-5.5,2.1l-3-9.7l-6.4,3.6l-3-1.8l0.2-9.5l5.6-4.2l4.6-11.3l11.7-6.4l29,5.3
	c33.5-3.5,94.2-10,94.2-10L530.1,61.5L533.9,72L520.3,79.6L509.4,81.7z M337.5,120l-15.9-8.3l-4.899,8.5l2.1,3.9l9.3-1.5l6.7,1.8
	L337.5,120z M354.3,130.3l-1.5-9.5l-3.1-4.6l3.7-1.5v-4.6l-9.5,5.2l3.3,8.6l-1.5,5.8L354.3,130.3z M217.4,56l-8.5-2.3L198.4,65
	l13.5,35.2l6.4,1.6l0.5-11.4l4.3-2.6l0.2-4.4l4.5-8.4l-3.2-6.3L217.4,56z"/>
<polygon fill="#B34109" points="393.1,172.4 391.6,173.8 393.1,179.2 396.4,179.7 397.5,176.1 "/>
</svg>
